<?xml version="1.0" encoding="UTF-8" standalone="no"?>
<!-- Created with Inkscape (http://www.inkscape.org/) -->

<svg
   xmlns:dc="http://purl.org/dc/elements/1.1/"
   xmlns:cc="http://creativecommons.org/ns#"
   xmlns:rdf="http://www.w3.org/1999/02/22-rdf-syntax-ns#"
   xmlns:svg="http://www.w3.org/2000/svg"
   xmlns="http://www.w3.org/2000/svg"
   xmlns:xlink="http://www.w3.org/1999/xlink"
   xmlns:sodipodi="http://sodipodi.sourceforge.net/DTD/sodipodi-0.dtd"
   xmlns:inkscape="http://www.inkscape.org/namespaces/inkscape"
   width="200mm"
   height="100mm"
   viewBox="0 0 708.66142 354.33071"
   id="svg2"
   version="1.1"
   inkscape:version="0.91 r13725"
   sodipodi:docname="Start_room.svg"
   inkscape:export-filename="/Users/jonathanloov/Dropbox/Teammajim/SpacePortalGame/School computer/SpacePortalGame/Res/SpaceShip/Start_room.png"
   inkscape:export-xdpi="90"
   inkscape:export-ydpi="90">
  <defs
     id="defs4">
    <linearGradient
       inkscape:collect="always"
       id="linearGradient4229">
      <stop
         style="stop-color:#80a9a4;stop-opacity:1;"
         offset="0"
         id="stop4231" />
      <stop
         style="stop-color:#80a9ba;stop-opacity:1"
         offset="1"
         id="stop4233" />
    </linearGradient>
    <radialGradient
       inkscape:collect="always"
       xlink:href="#linearGradient4229"
       id="radialGradient4237"
       cx="385.8789"
       cy="202.80859"
       fx="385.8789"
       fy="202.80859"
       r="226.26367"
       gradientTransform="matrix(1,0,0,0.52230096,0,96.88147)"
       gradientUnits="userSpaceOnUse" />
  </defs>
  <sodipodi:namedview
     id="base"
     pagecolor="#ffffff"
     bordercolor="#666666"
     borderopacity="1.0"
     inkscape:pageopacity="0.0"
     inkscape:pageshadow="2"
     inkscape:zoom="1.979899"
     inkscape:cx="373.21202"
     inkscape:cy="165.34685"
     inkscape:document-units="px"
     inkscape:current-layer="layer2"
     showgrid="false"
     inkscape:window-width="1436"
     inkscape:window-height="855"
     inkscape:window-x="4"
     inkscape:window-y="1"
     inkscape:window-maximized="1" />
  <metadata
     id="metadata7">
    <rdf:RDF>
      <cc:Work
         rdf:about="">
        <dc:format>image/svg+xml</dc:format>
        <dc:type
           rdf:resource="http://purl.org/dc/dcmitype/StillImage" />
        <dc:title />
      </cc:Work>
    </rdf:RDF>
  </metadata>
  <g
     inkscape:label="Layer 1"
     inkscape:groupmode="layer"
     id="layer1"
     transform="translate(0,-698.0315)">
    <path
       style="color:#000000;font-style:normal;font-variant:normal;font-weight:normal;font-stretch:normal;font-size:medium;line-height:normal;font-family:sans-serif;text-indent:0;text-align:start;text-decoration:none;text-decoration-line:none;text-decoration-style:solid;text-decoration-color:#000000;letter-spacing:normal;word-spacing:normal;text-transform:none;direction:ltr;block-progression:tb;writing-mode:lr-tb;baseline-shift:baseline;text-anchor:start;white-space:normal;clip-rule:nonzero;display:inline;overflow:visible;visibility:visible;opacity:1;isolation:auto;mix-blend-mode:normal;color-interpolation:sRGB;color-interpolation-filters:linearRGB;solid-color:#000000;solid-opacity:1;fill:#3b1200;fill-opacity:1;fill-rule:nonzero;stroke:#808080;stroke-width:1;stroke-linecap:butt;stroke-linejoin:miter;stroke-miterlimit:4;stroke-dasharray:none;stroke-dashoffset:0;stroke-opacity:1;color-rendering:auto;image-rendering:auto;shape-rendering:auto;text-rendering:auto;enable-background:accumulate"
       d="m 225.26367,778.66211 c -38.49936,0 -69.64844,31.14908 -69.64844,69.64844 l 0,105.05664 c 0,38.49936 31.1489,69.65041 69.64844,69.65041 l 321.22852,0 c 38.49954,0 69.65039,-31.15087 69.65039,-69.65041 l 0,-105.05664 c 0,-38.49955 -31.15103,-69.64844 -69.65039,-69.64844 l -321.22852,0 z m 0,10 321.22852,0 c 33.13258,0 59.65039,26.51604 59.65039,59.64844 l 0,105.05664 c 0,33.1324 -26.51799,59.65041 -59.65039,59.65041 l -321.22852,0 c -33.1324,0 -59.64844,-26.51783 -59.64844,-59.65041 l 0,-105.05664 c 0,-33.13258 26.51586,-59.64844 59.64844,-59.64844 z"
       id="path4176"
       inkscape:connector-curvature="0" />
  </g>
  <g
     inkscape:groupmode="layer"
     id="layer2"
     inkscape:label="Window corners">
    <g
       id="g4201"
       style="stroke:#6b8080;fill:url(#radialGradient4237);fill-opacity:1;stroke-opacity:1">
      <path
         id="path4189"
         style="fill:url(#radialGradient4237);fill-opacity:1;stroke:#6b8080;stroke-width:2;stroke-linecap:butt;stroke-linejoin:miter;stroke-miterlimit:4;stroke-dasharray:none;stroke-dashoffset:0;stroke-opacity:1"
         d="m 336.88672,168.96787 0,34.3449 c 0,3.07793 -2.47871,5.55664 -5.55664,5.55664 l -28.78906,0 c -3.07793,0 -5.55664,-2.47871 -5.55664,-5.55664 l 0,-28.78906 c 0,-3.07793 2.47871,-5.55664 5.55664,-5.55664 z m 4.02704,-7.9e-4 34.3449,0 c 3.07793,0 5.55664,2.47871 5.55664,5.55664 l 0,28.78906 c 0,3.07793 -2.47871,5.55664 -5.55664,5.55664 l -28.78906,0 c -3.07793,0 -5.55664,-2.47871 -5.55664,-5.55664 z m -8e-4,-4.04012 0,-34.3449 c 0,-3.07793 2.47871,-5.55664 5.55664,-5.55664 l 28.78906,0 c 3.07793,0 5.55664,2.47871 5.55664,5.55664 l 0,28.78906 c 0,3.07793 -2.47871,5.55664 -5.55664,5.55664 z m -4.02704,7.9e-4 -34.3449,0 c -3.07793,0 -5.55664,-2.47871 -5.55664,-5.55664 l 0,-28.78906 c 0,-3.07793 2.47871,-5.55664 5.55664,-5.55664 l 28.78906,0 c 3.07793,0 5.55664,2.47871 5.55664,5.55664 z M 225.26367,85.630859 c -35.81597,0 -64.64844,28.832471 -64.64844,64.648441 l 0,105.05664 c 0,35.81597 28.83247,64.65039 64.64844,64.65039 l 321.22852,0 c 35.81597,0 64.65039,-28.83442 64.65039,-64.65039 l 0,-105.05664 c 0,-35.81597 -28.83442,-64.648441 -64.65039,-64.648441 z" />
    </g>
  </g>
</svg>
