<?xml version="1.0" encoding="UTF-8" standalone="no"?>
<!-- Created with Inkscape (http://www.inkscape.org/) -->

<svg
   xmlns:dc="http://purl.org/dc/elements/1.1/"
   xmlns:cc="http://creativecommons.org/ns#"
   xmlns:rdf="http://www.w3.org/1999/02/22-rdf-syntax-ns#"
   xmlns:svg="http://www.w3.org/2000/svg"
   xmlns="http://www.w3.org/2000/svg"
   xmlns:sodipodi="http://sodipodi.sourceforge.net/DTD/sodipodi-0.dtd"
   xmlns:inkscape="http://www.inkscape.org/namespaces/inkscape"
   width="200mm"
   height="100mm"
   viewBox="0 0 708.66142 354.33071"
   id="svg2"
   version="1.1"
   inkscape:version="0.91 r13725"
   sodipodi:docname="Start_room.svg"
   inkscape:export-filename="/Users/jonathanloov/Dropbox/Teammajim/SpacePortalGame/School computer/SpacePortalGame/Res/SpaceShip/Start_room.png"
   inkscape:export-xdpi="90"
   inkscape:export-ydpi="90">
  <defs
     id="defs4" />
  <sodipodi:namedview
     id="base"
     pagecolor="#ffffff"
     bordercolor="#666666"
     borderopacity="1.0"
     inkscape:pageopacity="0.0"
     inkscape:pageshadow="2"
     inkscape:zoom="1.4"
     inkscape:cx="336.34145"
     inkscape:cy="158.78086"
     inkscape:document-units="px"
     inkscape:current-layer="layer2"
     showgrid="false"
     inkscape:window-width="1436"
     inkscape:window-height="855"
     inkscape:window-x="4"
     inkscape:window-y="0"
     inkscape:window-maximized="1" />
  <metadata
     id="metadata7">
    <rdf:RDF>
      <cc:Work
         rdf:about="">
        <dc:format>image/svg+xml</dc:format>
        <dc:type
           rdf:resource="http://purl.org/dc/dcmitype/StillImage" />
        <dc:title />
      </cc:Work>
    </rdf:RDF>
  </metadata>
  <g
     inkscape:label="Layer 1"
     inkscape:groupmode="layer"
     id="layer1"
     transform="translate(0,-698.0315)">
    <path
       style="fill:none;fill-opacity:1;stroke:#4f4f4f;stroke-width:10;stroke-linecap:butt;stroke-linejoin:miter;stroke-miterlimit:4;stroke-dasharray:none;stroke-dashoffset:0;stroke-opacity:1"
       d="m 225.26367,783.66236 c -35.81597,0 -64.64844,28.83247 -64.64844,64.64844 l 0,105.05664 c 0,35.81597 28.83247,64.65036 64.64844,64.65036 l 321.22852,0 c 35.81597,0 64.65039,-28.83439 64.65039,-64.65036 l 0,-105.05664 c 0,-35.81597 -28.83442,-64.64844 -64.65039,-64.64844 l -321.22852,0 z"
       id="path4176" />
  </g>
  <g
     inkscape:groupmode="layer"
     id="layer2"
     inkscape:label="Window corners">
    <g
       id="g4201">
      <path
         id="path4189"
         style="fill:#999999;fill-opacity:1;stroke:#808080;stroke-width:2;stroke-linecap:butt;stroke-linejoin:miter;stroke-miterlimit:4;stroke-dasharray:none;stroke-dashoffset:0;stroke-opacity:1"
         d="m 336.88672,168.96787 0,34.3449 c 0,3.07793 -2.47871,5.55664 -5.55664,5.55664 l -28.78906,0 c -3.07793,0 -5.55664,-2.47871 -5.55664,-5.55664 l 0,-28.78906 c 0,-3.07793 2.47871,-5.55664 5.55664,-5.55664 z m 4.02704,-7.9e-4 34.3449,0 c 3.07793,0 5.55664,2.47871 5.55664,5.55664 l 0,28.78906 c 0,3.07793 -2.47871,5.55664 -5.55664,5.55664 l -28.78906,0 c -3.07793,0 -5.55664,-2.47871 -5.55664,-5.55664 z m -8e-4,-4.04012 0,-34.3449 c 0,-3.07793 2.47871,-5.55664 5.55664,-5.55664 l 28.78906,0 c 3.07793,0 5.55664,2.47871 5.55664,5.55664 l 0,28.78906 c 0,3.07793 -2.47871,5.55664 -5.55664,5.55664 z m -4.02704,7.9e-4 -34.3449,0 c -3.07793,0 -5.55664,-2.47871 -5.55664,-5.55664 l 0,-28.78906 c 0,-3.07793 2.47871,-5.55664 5.55664,-5.55664 l 28.78906,0 c 3.07793,0 5.55664,2.47871 5.55664,5.55664 z M 225.26367,85.630859 c -35.81597,0 -64.64844,28.832471 -64.64844,64.648441 l 0,105.05664 c 0,35.81597 28.83247,64.65039 64.64844,64.65039 l 321.22852,0 c 35.81597,0 64.65039,-28.83442 64.65039,-64.65039 l 0,-105.05664 c 0,-35.81597 -28.83442,-64.648441 -64.65039,-64.648441 z" />
    </g>
  </g>
</svg>
